<?xml version="1.0" standalone="no"?>
<!DOCTYPE svg PUBLIC "-//W3C//DTD SVG 20010904//EN"
 "http://www.w3.org/TR/2001/REC-SVG-20010904/DTD/svg10.dtd">
<svg version="1.0" xmlns="http://www.w3.org/2000/svg"
 width="16.000000pt" height="16.000000pt" viewBox="0 0 16.000000 16.000000"
 preserveAspectRatio="xMidYMid meet">
<metadata>
Created by potrace 1.11, written by Peter Selinger 2001-2013
</metadata>
<g transform="translate(0.000000,16.000000) scale(0.005387,-0.005387)"
fill="#000000" stroke="none">
<path d="M1922 2925 c-128 -61 -247 -141 -336 -225 -42 -40 -80 -69 -86 -65
-17 11 -57 -3 -80 -27 -24 -26 -26 -58 -5 -98 13 -26 13 -35 -2 -93 l-17 -64
-105 48 c-114 52 -162 60 -198 31 -31 -24 -115 -199 -115 -240 0 -47 26 -80
84 -107 48 -22 49 -24 26 -30 -37 -9 -173 -32 -176 -30 -1 1 2 14 8 29 5 15
10 78 10 140 0 130 -12 157 -78 176 -22 6 -180 10 -395 10 -384 0 -407 -3
-441 -51 -15 -21 -16 -124 -16 -1145 l0 -1121 27 -27 c14 -14 36 -29 47 -31
12 -3 645 -4 1408 -3 l1388 3 27 28 c27 26 28 33 31 139 3 90 1 118 -14 150
-26 57 -54 68 -180 68 l-106 0 61 65 c75 81 114 146 146 248 34 107 33 118
-12 72 -52 -54 -131 -87 -217 -92 l-71 -4 57 32 c81 45 176 126 235 200 102
129 128 218 120 409 -3 69 -12 148 -20 175 l-14 50 -8 -40 c-16 -89 -28 -120
-60 -152 -39 -39 -80 -43 -113 -13 -50 47 -43 138 20 247 25 43 53 103 63 133
37 110 13 265 -57 377 l-34 53 1 -78 c0 -67 -4 -84 -30 -131 -33 -60 -87 -110
-154 -143 -38 -19 -63 -23 -141 -23 -80 0 -103 4 -143 24 -109 54 -183 164
-213 317 -31 161 -16 476 36 729 27 130 28 125 -22 125 -30 0 -72 -14 -136
-45z"/>
<path d="M2233 2834 c-9 -23 11 -38 26 -20 13 16 7 36 -10 36 -5 0 -12 -7 -16
-16z"/>
<path d="M2460 2430 c0 -15 5 -20 18 -18 9 2 17 10 17 18 0 8 -8 16 -17 18
-13 2 -18 -3 -18 -18z"/>
<path d="M2277 2158 c-44 -34 -37 -98 14 -127 59 -33 126 37 94 99 -21 41 -73
54 -108 28z"/>
</g>
</svg>
