 <svg xmlns="http://www.w3.org/2000/svg" xmlns:xlink="http://www.w3.org/1999/xlink" version="1.1" x="0px" y="0px"
     viewBox="0 0 100 100" enable-background="new 0 0 100 100" xml:space="preserve" fill="#F44336">
    <g>
        <path d="M95.676,82.768l-9.069-4.856l0.111,3.479H60.11c-1.842,1.242-3.789,2.325-5.832,3.24H86.82l0.113,3.562L95.676,82.768z"/>
        <path d="M63.491,74.224c3.263-3.263,5.824-7.063,7.614-11.294c1.854-4.381,2.793-9.035,2.793-13.832s-0.939-9.449-2.793-13.831   c-1.659-3.923-3.981-7.475-6.911-10.572l2.219-3.002l-0.778-0.089l-5.545-0.629l-3.899-0.443l1.031,2.365l2.994,6.881l0.082,0.188   l1.926-2.606c5.238,5.742,8.434,13.375,8.434,21.739c0,17.806-14.484,32.292-32.291,32.292c-6.641,0-12.819-2.016-17.957-5.466   l0.787,2.54l-2.592,0.172c1.864,1.248,3.844,2.319,5.93,3.201c4.381,1.854,9.035,2.793,13.831,2.793h3.296   c4.214-0.388,8.217-1.512,11.881-3.24h-0.335C57.036,79.631,60.491,77.225,63.491,74.224z"/>
        <path d="M11.968,76.067l4.332,0.492l2.325,0.265l0,0l0,0l-2.874-6.603l-0.969-2.226l-0.264-0.605l0,0l0,0l-1.372,1.854   c-4.424-5.526-7.072-12.533-7.072-20.147c0-17.806,14.485-32.292,32.292-32.292c5.801,0,11.249,1.538,15.958,4.227L53.62,18.89   l3.13-0.208c-1.454-0.88-2.974-1.655-4.553-2.323c-4.381-1.854-9.035-2.793-13.831-2.793c-4.796,0-9.45,0.939-13.831,2.793   c-4.231,1.79-8.032,4.351-11.294,7.614s-5.825,7.062-7.614,11.294c-1.854,4.382-2.793,9.035-2.793,13.831s0.939,9.451,2.793,13.832   c1.388,3.281,3.24,6.303,5.523,9.016l-0.51,0.689l-2.239,3.027l0.712,0.082l0.204,0.022L11.968,76.067z"/>
        <path d="M30.344,29.34c-2.645,1.073-5.018,2.648-7.053,4.683c-2.035,2.035-3.61,4.407-4.683,7.053   c-1.036,2.555-1.562,5.254-1.562,8.022c0,2.769,0.525,5.468,1.562,8.023c1.073,2.645,2.648,5.018,4.683,7.053   c2.035,2.034,4.408,3.609,7.053,4.682c1.981,0.805,4.049,1.301,6.168,1.483l0.411,2.742l0.433-0.344l3.033-2.415l1.365-1.085   l-2.077-0.817l-3.299-1.298l-0.369-0.146l0.205,1.369c-4.222-0.468-8.318-2.317-11.548-5.547c-7.555-7.555-7.555-19.846,0-27.401   c2.461-2.461,5.425-4.12,8.563-4.978l-1.208-0.609l1.241-1.417C32.271,28.638,31.298,28.954,30.344,29.34z"/>
        <path d="M46.388,68.855c2.645-1.072,5.018-2.647,7.052-4.682c2.036-2.035,3.611-4.408,4.684-7.054   c1.036-2.554,1.562-5.253,1.562-8.022c0-2.768-0.525-5.467-1.562-8.022c-1.072-2.645-2.647-5.018-4.684-7.053   c-2.034-2.035-4.407-3.61-7.052-4.683c-2.368-0.96-4.861-1.482-7.417-1.553l-0.332-2.215l-0.369,0.293l-2.62,2.085l-1.842,1.466   l1.44,0.567l4.19,1.649l0.114,0.044l-0.288-1.923c4.658,0.214,9.252,2.096,12.801,5.645c7.556,7.555,7.556,19.846,0,27.401   c-2.817,2.817-6.293,4.584-9.937,5.299l1.412,0.744l-1.026,1.172C43.835,69.754,45.13,69.367,46.388,68.855z"/>
    </g>
</svg>