<?xml version="1.0" encoding="iso-8859-1"?>
<!-- Generator: Adobe Illustrator 16.0.0, SVG Export Plug-In . SVG Version: 6.00 Build 0)  -->
<!DOCTYPE svg PUBLIC "-//W3C//DTD SVG 1.1//EN" "http://www.w3.org/Graphics/SVG/1.1/DTD/svg11.dtd">
<svg xmlns="http://www.w3.org/2000/svg" xmlns:xlink="http://www.w3.org/1999/xlink" version="1.1" id="Capa_1" x="0px" y="0px" width="512px" height="512px" viewBox="0 0 597.783 597.783" style="enable-background:new 0 0 597.783 597.783;" xml:space="preserve">
<g>
	<g>
		<path d="M582.961,509.919L482.412,409.337c-3.479-3.482-7.953-5.402-12.596-5.402c-5.422,0-10.623,2.613-14.262,7.18    c-12.629,15.814-27.061,30.252-42.889,42.904c-4.32,3.455-6.857,8.189-7.143,13.322c-0.279,4.992,1.631,9.803,5.373,13.545    l100.549,100.549c9.553,9.555,22.252,14.818,35.76,14.818c0.002,0,0.002,0,0.002,0c7.639,0,15.289-1.76,22.121-5.086    c8.52-4.146,19.217-14.846,23.363-23.363C602.123,548.429,598.209,525.167,582.961,509.919z" fill="#1976d2"/>
		<path d="M243.708,488.948c134.382,0,243.71-109.328,243.71-243.71c0-134.383-109.328-243.708-243.71-243.708    C109.328,1.53,0,110.858,0,245.238C0,379.624,109.328,488.948,243.708,488.948z M294.277,414.796    c2.515-5.777,11.555-11.479,19.189-14.125l0.768-0.268l0.627-0.51c11.123-9.064,21.484-19.188,30.803-30.086    c6.328-7.412,11.939-14.924,16.68-22.326l2.004-3.1c6.85-10.539,16.234-24.973,16.527-36.809    c0.346-13.972-14.262-16.901-24.93-19.04c-5.773-1.157-11.748-2.356-14.109-4.633c-1.848-1.781-3.498-3.831-5.248-6.007    c-1.656-2.062-3.373-4.195-5.344-6.19c-7.57-7.647-17.582-11.897-26.412-15.649c-1.781-0.759-4.166-1.952-6.929-3.338    c-9.388-4.712-22.246-11.163-32.68-11.163c-7.393,0-11.595,3.226-14.037,6.622c-0.128-0.055-0.25-0.107-0.358-0.153l-0.792-0.333    c-3.369-1.356-6.692-2.017-9.905-2.659c-5.171-1.031-9.256-1.845-12.148-5.095c-2.889-3.247-3.773-5.327-4.113-9.682    c-0.043-0.548,0.064-1.505,0.171-2.433c0.315-2.818,0.741-6.683-1.845-9.572c-1.594-1.784-3.886-2.687-6.809-2.687    c-0.792,0-1.686,0.064-2.699,0.22l-1.34,0.208c-2.338,0.37-4.434,0.731-6.49,0.496c-0.199-0.024-0.312-0.07-0.364-0.052    c-1.294-2.524,4.104-15.891,8.198-18.504c4.235-2.39,10.958-2.35,14.829,0.153c0.875,0.566,1.79,1.334,2.675,2.075    c2.197,1.839,4.685,3.92,7.904,3.92c1.839,0,4.504-0.701,6.763-4.03c2.316-3.421,2.843-7.038,3.302-10.23    c0.26-1.796,0.508-3.494,1.049-4.926c0.924-2.433,2.519-4.658,4.208-7.014c1.203-1.677,2.445-3.412,3.556-5.358    c3.281-5.747,6.674-11.692,11.481-15.875c5.869-5.11,13.812-7.641,21.493-10.085c0.787-0.251,2.222-0.618,4.048-1.09    c17.718-4.581,27.757-8.158,30.089-13.941c0.842-2.093,0.648-4.318-0.551-6.264c-1.693-2.748-4.623-4.431-8.146-4.715    c0.539-1.227,0.867-2.57,0.973-4c0.264-3.461-0.801-6.992-2.373-10.04c5.67,6.576,14.287,12.175,21.783,12.175    c3.381,0,6.447-1.114,8.861-3.219c1.916-1.674,3.492-3.391,4.879-4.908c2.02-2.203,3.76-4.106,4.996-4.106    c0.592,0,2.369,0.346,6.086,3.556c39.689,34.248,62.449,83.538,62.449,135.233c0,77.936-50.076,146.409-124.616,170.389    c-1.866,0.602-3.549,0.934-4.743,0.934c-0.015,0-0.027,0-0.04,0C293.76,416.14,293.947,415.563,294.277,414.796z M307.854,94.573    c0.197,1.888,0.918,3.95,2.039,6.046c-8.742-9.829-20.267-16.212-31.555-21.444c3.581-0.943,5.496-3.112,6.791-4.578    c0.851-0.967,1.291-1.444,1.952-1.692c0.428-0.162,0.998-0.245,1.695-0.245c2.405,0,5.508,0.958,8.244,1.806    c1.021,0.318,1.989,0.615,2.797,0.832c1.032,0.34,5.801,2.696,8.954,4.257c1.092,0.542,2.064,1.019,2.932,1.444    C308.828,84.86,307.346,89.769,307.854,94.573z M245.568,77.941c-2.289,4.036-1.582,8.372-1.013,11.857l0.187,1.16    c1.035,6.842-0.012,14.064-2.943,20.328c-0.083,0.174-0.159,0.328-0.229,0.462c-0.438-0.67-0.915-1.545-1.249-2.164    c-0.288-0.523-0.569-1.038-0.845-1.515c-4.694-8.051-13.562-10.168-20.688-11.87c-2.243-0.539-4.37-1.043-6.249-1.683    c-4.603-1.558-9.082-5.135-8.736-8.96c0.199-2.261,2.084-4.721,5.75-7.521c10.205-7.793,21.448-12.445,30.077-12.445    c4.226,0,7.956,1.077,11.093,3.201l0.832,0.566c1.197,0.814,2.559,1.741,4.045,2.699C251.101,72.36,247.566,74.425,245.568,77.941    z M97.437,177.755c2.161,2.834,4.948,4.612,7.411,6.178c2.216,1.411,4.128,2.632,5.349,4.434c2.76,3.855,6.631,5.676,10.046,7.283    c2.788,1.313,5.196,2.445,6.631,4.517c2.347,3.213,4.844,6.337,7.259,9.364c1.481,1.854,2.968,3.711,4.474,5.664    c0.704,0.875,1.315,2.117,1.961,3.436c1.454,2.959,3.256,6.644,7.35,8.629c5.04,2.561,10.367,3.586,15.514,4.581    c5.603,1.08,10.894,2.099,15.45,5.153c4.036,2.359,8.039,4.804,12.047,7.255c12.029,7.353,24.468,14.957,37.748,20.101    c3.033,1.411,6.328,1.665,9.241,1.888c0.792,0.061,1.585,0.122,2.362,0.208c1.54,0.168,2.675,0.584,2.962,1.083    c1.178,2.044-1.83,8.822-3.112,11.717c-0.805,1.814-1.499,3.381-1.916,4.749c-3.923,12.864-0.018,29.664,9.499,40.855    c2.399,2.818,5.098,5.297,7.708,7.697c4.293,3.951,8.351,7.684,10.52,12.369c3.292,7.102,2.035,15.723,0.19,25.438    c-0.462,2.449-0.857,6.01-1.353,10.521c-0.594,5.412-1.337,12.148-2.43,18.639c-3.688,21.93-8.746,24.246-10.205,24.43    c-2.506,0.318-5.474,0.646-8.439,0.646c-98.89,0-179.347-80.457-179.347-179.347c0-31.224,8.421-62.09,24.37-89.428    C89.462,163.217,91.782,171.293,97.437,177.755z" fill="#1976d2"/>
	</g>
</g>
<g>
</g>
<g>
</g>
<g>
</g>
<g>
</g>
<g>
</g>
<g>
</g>
<g>
</g>
<g>
</g>
<g>
</g>
<g>
</g>
<g>
</g>
<g>
</g>
<g>
</g>
<g>
</g>
<g>
</g>
</svg>
